# xmcd CD database file
#
# Track frame offsets:
#	150
#	20992
#	38655
#	74182
#
# Disc length: 1429 seconds
#
# Revision: 0
# Processed by: cddbd v1.5.1PL0 Copyright (c) Steve Scherf et al.
# Submitted via: CDex 1.51
#
DISCID=39059304
DTITLE=THE BACK HORN - 夢の花
DYEAR=2004
DGENRE=Rock
TTITLE0=夢の花
TTITLE1=針の雨
TTITLE2=レクイエム
TTITLE3=データトラック
EXTD=YEAR: 2004
EXTT0=
EXTT1=
EXTT2=
EXTT3=
PLAYORDER=
